<svg xmlns="http://www.w3.org/2000/svg" width="197.342" height="28.085" viewBox="0 0 197.342 28.085">
  <g id="Logo" transform="translate(-1.991)">
    <g id="webovio." transform="translate(51.492)">
      <path id="webovio" d="M120.434,16.462c0-5.232,4.179-9.155,9.553-9.155,5.288,0,9.41,3.81,9.41,9.069,0,5.316-3.838,9.325-9.525,9.325A9.411,9.411,0,0,1,120.434,16.462Zm-49.328,0c0-5.232,4.18-9.155,9.553-9.155,5.288,0,9.41,3.81,9.41,9.069,0,5.316-3.838,9.325-9.524,9.325A9.411,9.411,0,0,1,71.106,16.462ZM55.469,23.285V25.1H50.295V3.326h5.26V9.3a9.175,9.175,0,0,1,5.374-1.99c5.145,0,8.187,4.35,8.187,9.1,0,4.862-3.1,9.127-8.017,9.127A7.4,7.4,0,0,1,55.469,23.285ZM29.938,16.4a8.724,8.724,0,0,1,8.928-9.1c5.032,0,8.586,3.326,8.586,9.553v.151c.005.335.023.553,0,.9H35.169a3.865,3.865,0,0,0,4.094,3.07,4.7,4.7,0,0,0,3.623-2.211l.157-.205s2.579,1.487,3.788,2.213l.335.2a9.128,9.128,0,0,1-8.159,4.549C33.634,25.531,29.938,22.262,29.938,16.4ZM112.3,25.1V7.648h5.288V25.1Zm-13.675,0L91.32,7.648h5.914l3.81,10.207,3.582-10.207H110.2L103.347,25.1ZM17.6,25.1l-3.241-9.383L11.23,25.1H6.653L0,7.648H5.573l3.469,9.666,3.184-9.666h4.236l3.354,9.724,3.441-9.724h5.487L22.176,25.1ZM111.791,3.213a3.2,3.2,0,0,1,6.4-.058,3.246,3.246,0,0,1-3.27,3.242A3.131,3.131,0,0,1,111.791,3.213Z" fill="#0F0E0E"/>
      <path id="_." data-name="." d="M3.27,0a3.288,3.288,0,0,1,3.27,3.27,3.288,3.288,0,0,1-3.27,3.27A3.288,3.288,0,0,1,0,3.27,3.288,3.288,0,0,1,3.27,0Z" transform="translate(141.302 18.808)" fill="#edb91b"/>
    </g>
    <g id="Group_3" data-name="Group 3" transform="translate(0 3.322)">
      <path id="Triangle" d="M14.1,3.721a2.6,2.6,0,0,1,4.465,0l14.1,23.5H4.6a2.6,2.6,0,0,1-2.233-3.943Z" transform="translate(42.605 27.22) rotate(180)" fill="#edb91b"/>
      <path id="Triangle_Copy" data-name="Triangle Copy" d="M-14.1,3.721a2.6,2.6,0,0,0-4.465,0l-14.1,23.5H-4.6a2.6,2.6,0,0,0,2.233-3.943Z" transform="translate(0 27.22) rotate(-180)" fill="#0F0E0E"/>
      <path id="Rectangle" d="M0,0H22.723L11.362,18.936Z" transform="translate(9.941)" fill="#0F0E0E"/>
    </g>
  </g>
</svg>
